<svg id="layer_1" data-name="layer 1" xmlns="http://www.w3.org/2000/svg" viewBox="0 0 149.44634 37.89887">
  <defs>
    <style>
      .cls-1 {
        fill: #39a7dd;
      }

      .cls-2 {
        fill: #5ab280;
      }

      .cls-3 {
        fill: #9ec03b;
      }

      .cls-4 {
        fill: #ded820;
      }

      .cls-5 {
        fill: #eebd1c;
      }

      .cls-6 {
        fill: #ec8d22;
      }

      .cls-7 {
        fill: #df4a26;
      }
    </style>
  </defs>
  <title>ShipsGo Logo</title>
  <path class="cls-1" d="M17.87939,18.55137a26.706,26.706,0,0,0-3.96026-1.535c-1.24135-.42066-2.23213-.7933-2.94459-1.10762A4.56237,4.56237,0,0,1,9.32128,14.702a2.717,2.717,0,0,1-.61346-1.84653,2.68081,2.68081,0,0,1,.88641-2.19023,3.739,3.739,0,0,1,2.47844-.77376,3.81791,3.81791,0,0,1,2.695.90207,3.884,3.884,0,0,1,1.14289,1.88709.8885.8885,0,0,0,.86281.663H19.7559a1.27672,1.27672,0,0,0,1.24278-1.577,7.31238,7.31238,0,0,0-2.54374-4.00238,9.832,9.832,0,0,0-6.38227-1.94459,10.78425,10.78425,0,0,0-4.45233.87312A6.93146,6.93146,0,0,0,4.5884,9.21155,6.80213,6.80213,0,0,0,3.52174,12.998a6.63674,6.63674,0,0,0,1.11454,3.98176A7.40429,7.40429,0,0,0,7.30073,19.2774a26.9838,26.9838,0,0,0,3.89143,1.51824c1.26169.41937,2.26861.79723,2.99247,1.123a4.86987,4.86987,0,0,1,1.7105,1.2619,2.86535,2.86535,0,0,1,.64858,1.95253,3.00475,3.00475,0,0,1-.89163,2.26488,3.55033,3.55033,0,0,1-2.5805.87726,4.146,4.146,0,0,1-3.01227-1.05941,4.0637,4.0637,0,0,1-1.22956-2.20141.89762.89762,0,0,0-.88037-.7248H4.86183a1.15991,1.15991,0,0,0-.89814.4237,1.14527,1.14527,0,0,0-.24183.95063A7.518,7.518,0,0,0,5.0665,28.7266a8.44665,8.44665,0,0,0,3.41163,2.6768,11.64183,11.64183,0,0,0,4.772.94358,9.90732,9.90732,0,0,0,4.65428-1.00909,6.9161,6.9161,0,0,0,2.87976-2.7084,7.32645,7.32645,0,0,0,.94561-3.63854,6.859,6.859,0,0,0-1.13135-4.08728A7.52072,7.52072,0,0,0,17.87939,18.55137Z" transform="translate(-3.52174 -3.52174)"/>
  <path class="cls-2" d="M42.91357,13.67669a7.60834,7.60834,0,0,0-5.797-2.33765,8.101,8.101,0,0,0-4.50821,1.27771,6.90773,6.90773,0,0,0-1.40384,1.20737.33366.33366,0,0,1-.377.09393.32021.32021,0,0,1-.21463-.31127V6.14333a1.21134,1.21134,0,0,0-1.211-1.20894H26.924a1.21134,1.21134,0,0,0-1.211,1.20894V30.94565a1.15488,1.15488,0,0,0,1.15469,1.15244h2.59094A1.15471,1.15471,0,0,0,30.613,30.94565V21.2559a6.00384,6.00384,0,0,1,1.34877-4.2503,4.65821,4.65821,0,0,1,3.58511-1.4174,4.41207,4.41207,0,0,1,3.40634,1.31011,5.34657,5.34657,0,0,1,1.24244,3.78849V30.8979a1.20256,1.20256,0,0,0,1.20216,1.20019h2.49552a1.20239,1.20239,0,0,0,1.20182-1.20019V20.25984a9.30069,9.30069,0,0,0-2.18141-6.583Z" transform="translate(-3.52174 -3.52174)"/>
  <path class="cls-3" d="M52.73725,11.65913H50.24857a1.23776,1.23776,0,0,0-.89671.38505.99569.99569,0,0,0-.27038.75974l.004.04814c.00454.055.00963.10966.00963.16473V30.80635a1.46519,1.46519,0,0,0,.01078.15272c.00271.02428.00651.049.00678.06429a.92937.92937,0,0,0,.24047.72047,1.13664,1.13664,0,0,0,.8441.354h2.591a1.15475,1.15475,0,0,0,1.15462-1.15231V12.86278A1.206,1.206,0,0,0,52.73725,11.65913Z" transform="translate(-3.52174 -3.52174)"/>
  <path class="cls-4" d="M77.72754,16.33667a8.7338,8.7338,0,0,0-3.31432-3.65727l-.00025-.00014a9.189,9.189,0,0,0-4.79815-1.269A8.23158,8.23158,0,0,0,64.811,12.80168,7.38156,7.38156,0,0,0,62.826,14.82989V12.883a1.22609,1.22609,0,0,0-1.2259-1.22353h-2.448A1.22608,1.22608,0,0,0,57.92618,12.883V40.26479a1.15789,1.15789,0,0,0,1.15732,1.15582h2.58526A1.15783,1.15783,0,0,0,62.826,40.26479V29.93519a.32025.32025,0,0,1,.21559-.31235.33864.33864,0,0,1,.3835.09875A7.61,7.61,0,0,0,64.81082,30.956a8.23018,8.23018,0,0,0,4.804,1.391,9.18156,9.18156,0,0,0,4.79826-1.26909,8.72379,8.72379,0,0,0,3.31453-3.65741,12.3161,12.3161,0,0,0,1.18567-5.55938A12.23744,12.23744,0,0,0,77.72754,16.33667ZM73.248,26.32418a5.28024,5.28024,0,0,1-4.04963,1.596,5.53018,5.53018,0,0,1-2.85585-.74282,5.30125,5.30125,0,0,1-1.98527-2.09794,6.723,6.723,0,0,1-.735-3.21828,6.753,6.753,0,0,1,.736-3.20284,5.27482,5.27482,0,0,1,1.9842-2.11381l.00014-.00007a5.53161,5.53161,0,0,1,2.85571-.74283A5.25232,5.25232,0,0,1,73.24646,17.414a6.25836,6.25836,0,0,1,1.528,4.44712A6.24449,6.24449,0,0,1,73.248,26.32418Z" transform="translate(-3.52174 -3.52174)"/>
  <path class="cls-5" d="M95.41553,21.18286a26.18187,26.18187,0,0,0-3.60708-1.0394,25.60727,25.60727,0,0,1-2.5177-.69205,3.451,3.451,0,0,1-1.30653-.6597,1.86038,1.86038,0,0,1-.5177-1.30863,2.0454,2.0454,0,0,1,.68711-1.64173,3.0898,3.0898,0,0,1,2.07608-.6201,3.94991,3.94991,0,0,1,2.67626.86681,3.54586,3.54586,0,0,1,1.10619,1.76706,1.22586,1.22586,0,0,0,1.17456.89047h2.17672a1.21824,1.21824,0,0,0,1.17809-1.5375,7.596,7.596,0,0,0-2.443-3.86735l-.00014-.00007a8.67425,8.67425,0,0,0-5.76264-1.8426c-.82816,0-4.02848.49-5.40594,1.62851A5.36206,5.36206,0,0,0,82.92373,17.448a4.94512,4.94512,0,0,0,1.03418,3.2815,5.79931,5.79931,0,0,0,2.43456,1.72562,29.54568,29.54568,0,0,0,3.50359,1.00367,21.88192,21.88192,0,0,1,2.5626.673,4.03254,4.03254,0,0,1,1.44229.844,1.70859,1.70859,0,0,1,.50508,1.318,2.06945,2.06945,0,0,1-.69456,1.61278,2.83176,2.83176,0,0,1-1.99769.64871,4.67427,4.67427,0,0,1-2.99091-.8961,3.21886,3.21886,0,0,1-1.15978-1.75329,1.22069,1.22069,0,0,0-1.18-.91022H84.11674A1.21973,1.21973,0,0,0,82.941,26.54052a7.18879,7.18879,0,0,0,2.63909,3.92717,9.96426,9.96426,0,0,0,6.13373,1.77566A8.09925,8.09925,0,0,0,96.97636,30.634a5.27419,5.27419,0,0,0,2.00813-4.2699,5.08835,5.08835,0,0,0-1.07079-3.38845A6.19559,6.19559,0,0,0,95.41553,21.18286Z" transform="translate(-3.52174 -3.52174)"/>
  <path class="cls-6" d="M126.9986,17.58955H115.72883a1.0931,1.0931,0,0,0-1.0925,1.09128v1.65035a1.09287,1.09287,0,0,0,1.0925,1.09087h7.686a.33634.33634,0,0,1,.26733.12824.34541.34541,0,0,1,.06687.29377,7.48452,7.48452,0,0,1-7.5508,6.02808,8.75967,8.75967,0,0,1-4.32483-1.03622A7.07157,7.07157,0,0,1,109.016,23.8484a10.29711,10.29711,0,0,1-1.02686-4.77085,9.88971,9.88971,0,0,1,1.00882-4.59236,7.261,7.261,0,0,1,2.77648-2.97485,7.82957,7.82957,0,0,1,4.03-1.04889,7.66159,7.66159,0,0,1,4.23017,1.14716,6.46943,6.46943,0,0,1,2.3643,2.65319,1.18368,1.18368,0,0,0,1.06307.66235h2.77756a1.176,1.176,0,0,0,1.11271-1.55893,10.69184,10.69184,0,0,0-3.82029-5.22677V8.13838a12.79526,12.79526,0,0,0-7.76319-2.29486A13.21329,13.21329,0,0,0,109.064,7.52384a11.61157,11.61157,0,0,0-4.50875,4.70039,14.50192,14.50192,0,0,0-1.58741,6.85332,14.49847,14.49847,0,0,0,1.58741,6.85318,11.687,11.687,0,0,0,4.526,4.71762,13.19407,13.19407,0,0,0,6.72317,1.69876,12.76447,12.76447,0,0,0,6.0472-1.4054,11.80412,11.80412,0,0,0,4.26475-3.756,12.4398,12.4398,0,0,0,1.24576-2.29743,10.95964,10.95964,0,0,0,.81378-4.19518V18.76492A1.17766,1.17766,0,0,0,126.9986,17.58955Z" transform="translate(-3.52174 -3.52174)"/>
  <path class="cls-7" d="M151.63,16.319a9.14434,9.14434,0,0,0-3.7343-3.65041l-.00014-.00014a11.88835,11.88835,0,0,0-10.64668.00068,9.28991,9.28991,0,0,0-3.73281,3.6477,11.02682,11.02682,0,0,0-1.35684,5.54394,11.12472,11.12472,0,0,0,1.35616,5.56076,9.2536,9.2536,0,0,0,3.73349,3.66676,11.88776,11.88776,0,0,0,10.64668.00054A9.13773,9.13773,0,0,0,151.63,27.43839a11.21658,11.21658,0,0,0,1.33812-5.57758A11.14248,11.14248,0,0,0,151.63,16.319Zm-3.66866,5.54177a7.08208,7.08208,0,0,1-.75071,3.42866,4.88878,4.88878,0,0,1-1.9551,2.00461,5.8088,5.8088,0,0,1-5.38357,0,4.88445,4.88445,0,0,1-1.955-2.00461,7.07783,7.07783,0,0,1-.75111-3.42866,7.10068,7.10068,0,0,1,.7522-3.41252,4.86444,4.86444,0,0,1,1.954-2.02041,5.80531,5.80531,0,0,1,5.38329-.00007,4.86915,4.86915,0,0,1,1.95416,2.02042A7.10535,7.10535,0,0,1,147.96129,21.86081Z" transform="translate(-3.52174 -3.52174)"/>
  <path class="cls-3" d="M51.21833,3.52174A2.75577,2.75577,0,1,0,53.98,6.27747,2.76179,2.76179,0,0,0,51.21833,3.52174Z" transform="translate(-3.52174 -3.52174)"/>
</svg>
