<svg width="250" height="249" viewBox="0 0 250 249" fill="none" xmlns="http://www.w3.org/2000/svg">
<path d="M0 2C0 0.895429 0.895431 0 2 0H47.9785C49.0831 0 49.9785 0.895431 49.9785 2V47.9785C49.9785 49.0831 49.0831 49.9785 47.9785 49.9785H2C0.895429 49.9785 0 49.0831 0 47.9785V2Z" fill="black"/>
<path d="M49.9785 51.9785C49.9785 50.8739 50.8739 49.9785 51.9785 49.9785H97.957C99.0616 49.9785 99.957 50.8739 99.957 51.9785V97.957C99.957 99.0616 99.0616 99.957 97.957 99.957H51.9785C50.8739 99.957 49.9785 99.0616 49.9785 97.957V51.9785Z" fill="black"/>
<path d="M99.957 2C99.957 0.895429 100.852 0 101.957 0H147.936C149.04 0 149.936 0.895431 149.936 2V47.9785C149.936 49.0831 149.04 49.9785 147.936 49.9785H101.957C100.852 49.9785 99.957 49.0831 99.957 47.9785V2Z" fill="black"/>
<path d="M149.935 51.9785C149.935 50.8739 150.831 49.9785 151.935 49.9785H197.914C199.018 49.9785 199.914 50.8739 199.914 51.9785V97.957C199.914 99.0616 199.018 99.957 197.914 99.957H151.935C150.831 99.957 149.935 99.0616 149.935 97.957V51.9785Z" fill="black"/>
<path d="M199.914 2C199.914 0.895429 200.809 0 201.914 0H247.892C248.997 0 249.892 0.895431 249.892 2V47.9785C249.892 49.0831 248.997 49.9785 247.892 49.9785H201.914C200.809 49.9785 199.914 49.0831 199.914 47.9785V2Z" fill="black"/>
<path d="M199.914 101.957C199.914 100.852 200.809 99.957 201.914 99.957H247.892C248.997 99.957 249.892 100.852 249.892 101.957V147.935C249.892 149.04 248.997 149.935 247.892 149.935H201.914C200.809 149.935 199.914 149.04 199.914 147.935V101.957Z" fill="black"/>
<path d="M149.935 151.043C149.935 149.938 150.831 149.043 151.935 149.043H197.914C199.018 149.043 199.914 149.938 199.914 151.043V197.022C199.914 198.126 199.018 199.022 197.914 199.022H151.935C150.831 199.022 149.935 198.126 149.935 197.022V151.043Z" fill="black"/>
<path d="M199.914 201.021C199.914 199.917 200.809 199.021 201.914 199.021H247.892C248.997 199.021 249.892 199.917 249.892 201.021V247C249.892 248.105 248.997 249 247.892 249H201.914C200.809 249 199.914 248.105 199.914 247V201.021Z" fill="black"/>
</svg>
