<svg width="21" height="20" viewBox="0 0 21 20" fill="none" xmlns="http://www.w3.org/2000/svg">
<path d="M6.33317 5.00008V2.50008C6.33317 2.03985 6.70627 1.66675 7.1665 1.66675H17.1665C17.6267 1.66675 17.9998 2.03985 17.9998 2.50008V14.1667C17.9998 14.627 17.6267 15.0001 17.1665 15.0001H14.6665V17.4993C14.6665 17.96 14.2916 18.3334 13.8275 18.3334H3.83888C3.37549 18.3334 3 17.9629 3 17.4993L3.00217 5.83414C3.00225 5.37351 3.3772 5.00008 3.84118 5.00008H6.33317ZM4.66868 6.66675L4.66682 16.6667H12.9998V6.66675H4.66868ZM7.99983 5.00008H14.6665V13.3334H16.3332V3.33341H7.99983V5.00008ZM6.33333 9.16675H11.3333V10.8334H6.33333V9.16675ZM6.33333 12.5001H11.3333V14.1667H6.33333V12.5001Z" fill="black"/>
</svg>
